<svg xmlns="http://www.w3.org/2000/svg" width="24" height="24" viewBox="0 0 24 24">
    <path data-name="Path 2231" d="M13.5.67a21.493 21.493 0 0 1 .74 4.8 3.47 3.47 0 0 1-3.41 3.73A3.64 3.64 0 0 1 7.2 5.47l.03-.36A13.768 13.768 0 0 0 4 14a8 8 0 0 0 16 0A17.115 17.115 0 0 0 13.5.67zM11.71 19a3.176 3.176 0 0 1-3.22-3.14 3.132 3.132 0 0 1 2.81-3.12 7.712 7.712 0 0 0 4.62-2.58 13.953 13.953 0 0 1 .59 4.04 4.8 4.8 0 0 1-4.8 4.8z" style="fill:#666"/>
    <path data-name="Path 2232" d="M0 0h24v24H0z" style="fill:none"/>
</svg>
